<svg xmlns="http://www.w3.org/2000/svg" xmlns:xlink="http://www.w3.org/1999/xlink" width="1920" zoomAndPan="magnify" viewBox="0 0 1440 404.99999" height="540" preserveAspectRatio="xMidYMid meet" version="1.0"><defs><g/><clipPath id="7e50b9924f"><rect x="0" width="1440" y="0" height="347"/></clipPath></defs><g><g clip-path="url(#7e50b9924f)"><g fill="#ffffff" fill-opacity="1"><g transform="translate(0.0000177778, 260.282469)"><g><path d="M 177.140625 -160.140625 C 170.992188 -187.566406 153.398438 -201.28125 124.359375 -201.28125 C 106.328125 -201.28125 91.96875 -193.9375 81.28125 -179.25 C 70.59375 -164.570312 65.25 -144.171875 65.25 -118.046875 C 65.25 -93.535156 70.429688 -73.859375 80.796875 -59.015625 C 91.160156 -44.171875 105.679688 -36.75 124.359375 -36.75 C 152.859375 -36.75 170.453125 -51.703125 177.140625 -81.609375 L 226.859375 -81.609375 C 223.296875 -57.210938 212.609375 -36.457031 194.796875 -19.34375 C 176.984375 -2.238281 153.179688 6.3125 123.390625 6.3125 C 90.140625 6.3125 63.691406 -4.671875 44.046875 -26.640625 C 24.398438 -48.609375 14.578125 -79.289062 14.578125 -118.6875 C 14.578125 -156.363281 24.34375 -186.722656 43.875 -209.765625 C 63.414062 -232.816406 90.132812 -244.34375 124.03125 -244.34375 C 153.71875 -244.34375 177.707031 -236.328125 196 -220.296875 C 214.300781 -204.265625 224.585938 -184.210938 226.859375 -160.140625 Z M 177.140625 -160.140625 "/></g></g></g><g fill="#ffffff" fill-opacity="1"><g transform="translate(239.803199, 260.282469)"><g><path d="M 123.875 -85.5 C 118.15625 -81.5 107.035156 -78.3125 90.515625 -75.9375 C 76.703125 -74 67.660156 -70.894531 63.390625 -66.625 C 59.128906 -62.363281 57 -56.726562 57 -49.71875 C 57 -42.695312 59.265625 -37.40625 63.796875 -33.84375 C 68.328125 -30.28125 73.722656 -28.5 79.984375 -28.5 C 91.859375 -28.5 102.140625 -31.816406 110.828125 -38.453125 C 119.523438 -45.097656 123.875 -53.382812 123.875 -63.3125 Z M 169.21875 -34.484375 C 169.21875 -26.390625 169.972656 -20.046875 171.484375 -15.453125 C 172.992188 -10.867188 175.640625 -8.039062 179.421875 -6.96875 L 179.421875 0 L 129.703125 0 C 127.546875 -5.9375 126.035156 -12.898438 125.171875 -20.890625 C 110.054688 -3.828125 90.410156 4.703125 66.234375 4.703125 C 49.492188 4.703125 36.023438 0.0625 25.828125 -9.21875 C 15.628906 -18.507812 10.53125 -31.035156 10.53125 -46.796875 C 10.53125 -61.910156 14.984375 -74.378906 23.890625 -84.203125 C 32.796875 -94.023438 46.097656 -100.234375 63.796875 -102.828125 L 107.1875 -109.140625 C 113.125 -110.003906 117.390625 -111.648438 119.984375 -114.078125 C 122.578125 -116.503906 123.875 -119.609375 123.875 -123.390625 C 123.875 -130.191406 121.390625 -135.34375 116.421875 -138.84375 C 111.453125 -142.351562 103.84375 -144.109375 93.59375 -144.109375 C 82.90625 -144.109375 75.101562 -142.164062 70.1875 -138.28125 C 65.28125 -134.394531 62.234375 -128.082031 61.046875 -119.34375 L 16.1875 -119.34375 C 18.457031 -140.820312 25.769531 -156.472656 38.125 -166.296875 C 50.488281 -176.117188 70.21875 -181.03125 97.3125 -181.03125 C 119.125 -181.03125 136.5625 -176.65625 149.625 -167.90625 C 162.6875 -159.164062 169.21875 -146.539062 169.21875 -130.03125 Z M 169.21875 -34.484375 "/></g></g></g><g fill="#ffffff" fill-opacity="1"><g transform="translate(429.249332, 260.282469)"><g><path d="M 69.140625 0 L 22.671875 0 L 22.671875 -238.03125 L 69.140625 -238.03125 Z M 69.140625 0 "/></g></g></g><g fill="#ffffff" fill-opacity="1"><g transform="translate(521.057843, 260.282469)"><g><path d="M 132.625 -105.734375 C 131.644531 -116.960938 127.96875 -125.976562 121.59375 -132.78125 C 115.226562 -139.582031 106.972656 -142.984375 96.828125 -142.984375 C 74.804688 -142.984375 62.234375 -130.566406 59.109375 -105.734375 Z M 178.4375 -51.65625 C 173.039062 -33.40625 163.378906 -19.445312 149.453125 -9.78125 C 135.523438 -0.125 119.332031 4.703125 100.875 4.703125 C 71.84375 4.703125 49.660156 -3.3125 34.328125 -19.34375 C 18.992188 -35.375 11.328125 -57.585938 11.328125 -85.984375 C 11.328125 -114.484375 18.53125 -137.445312 32.9375 -154.875 C 47.351562 -172.3125 68.867188 -181.03125 97.484375 -181.03125 C 123.171875 -181.03125 143.410156 -172.878906 158.203125 -156.578125 C 172.992188 -140.273438 180.390625 -116.039062 180.390625 -83.875 L 180.390625 -75.625 L 57.8125 -75.625 C 58.882812 -61.257812 63.09375 -50.488281 70.4375 -43.3125 C 77.78125 -36.132812 87.765625 -32.546875 100.390625 -32.546875 C 107.953125 -32.546875 114.484375 -34.300781 119.984375 -37.8125 C 125.492188 -41.320312 129.054688 -45.9375 130.671875 -51.65625 Z M 178.4375 -51.65625 "/></g></g></g><g fill="#ffffff" fill-opacity="1"><g transform="translate(711.151654, 260.282469)"><g><path d="M 182.171875 0 L 135.6875 0 L 135.6875 -109.625 C 135.6875 -119.875 133.363281 -127.832031 128.71875 -133.5 C 124.082031 -139.175781 116.367188 -142.015625 105.578125 -142.015625 C 94.453125 -142.015625 85.597656 -138.367188 79.015625 -131.078125 C 72.429688 -123.796875 69.140625 -113.835938 69.140625 -101.203125 L 69.140625 0 L 22.671875 0 L 22.671875 -176.5 L 67.203125 -176.5 L 67.203125 -150.59375 L 67.84375 -150.59375 C 78.96875 -170.882812 96.507812 -181.03125 120.46875 -181.03125 C 138.5 -181.03125 153.289062 -175.875 164.84375 -165.5625 C 176.394531 -155.257812 182.171875 -140.769531 182.171875 -122.09375 Z M 182.171875 0 "/></g></g></g><g fill="#ffffff" fill-opacity="1"><g transform="translate(913.551367, 260.282469)"><g><path d="M 59.90625 -86.953125 C 59.90625 -71.410156 63.304688 -58.617188 70.109375 -48.578125 C 76.910156 -38.535156 86.195312 -33.515625 97.96875 -33.515625 C 111.03125 -33.515625 121.148438 -38.128906 128.328125 -47.359375 C 135.503906 -56.585938 139.09375 -68.867188 139.09375 -84.203125 C 139.09375 -102.984375 135.742188 -117.125 129.046875 -126.625 C 122.359375 -136.125 112.429688 -140.875 99.265625 -140.875 C 86.847656 -140.875 77.179688 -136.125 70.265625 -126.625 C 63.359375 -117.125 59.90625 -103.898438 59.90625 -86.953125 Z M 183.46875 0 L 138.125 0 L 138.125 -22.1875 L 137.46875 -22.1875 C 126.78125 -4.257812 109.726562 4.703125 86.3125 4.703125 C 62.988281 4.703125 44.796875 -3.984375 31.734375 -21.359375 C 18.671875 -38.742188 12.140625 -61.6875 12.140625 -90.1875 C 12.140625 -118.144531 18.992188 -140.273438 32.703125 -156.578125 C 46.421875 -172.878906 63.960938 -181.03125 85.328125 -181.03125 C 108.003906 -181.03125 125.0625 -171.851562 136.5 -153.5 L 137.15625 -153.5 L 137.15625 -238.03125 L 183.46875 -238.03125 Z M 183.46875 0 "/></g></g></g><g fill="#ffffff" fill-opacity="1"><g transform="translate(1119.675236, 260.282469)"><g><path d="M 123.875 -85.5 C 118.15625 -81.5 107.035156 -78.3125 90.515625 -75.9375 C 76.703125 -74 67.660156 -70.894531 63.390625 -66.625 C 59.128906 -62.363281 57 -56.726562 57 -49.71875 C 57 -42.695312 59.265625 -37.40625 63.796875 -33.84375 C 68.328125 -30.28125 73.722656 -28.5 79.984375 -28.5 C 91.859375 -28.5 102.140625 -31.816406 110.828125 -38.453125 C 119.523438 -45.097656 123.875 -53.382812 123.875 -63.3125 Z M 169.21875 -34.484375 C 169.21875 -26.390625 169.972656 -20.046875 171.484375 -15.453125 C 172.992188 -10.867188 175.640625 -8.039062 179.421875 -6.96875 L 179.421875 0 L 129.703125 0 C 127.546875 -5.9375 126.035156 -12.898438 125.171875 -20.890625 C 110.054688 -3.828125 90.410156 4.703125 66.234375 4.703125 C 49.492188 4.703125 36.023438 0.0625 25.828125 -9.21875 C 15.628906 -18.507812 10.53125 -31.035156 10.53125 -46.796875 C 10.53125 -61.910156 14.984375 -74.378906 23.890625 -84.203125 C 32.796875 -94.023438 46.097656 -100.234375 63.796875 -102.828125 L 107.1875 -109.140625 C 113.125 -110.003906 117.390625 -111.648438 119.984375 -114.078125 C 122.578125 -116.503906 123.875 -119.609375 123.875 -123.390625 C 123.875 -130.191406 121.390625 -135.34375 116.421875 -138.84375 C 111.453125 -142.351562 103.84375 -144.109375 93.59375 -144.109375 C 82.90625 -144.109375 75.101562 -142.164062 70.1875 -138.28125 C 65.28125 -134.394531 62.234375 -128.082031 61.046875 -119.34375 L 16.1875 -119.34375 C 18.457031 -140.820312 25.769531 -156.472656 38.125 -166.296875 C 50.488281 -176.117188 70.21875 -181.03125 97.3125 -181.03125 C 119.125 -181.03125 136.5625 -176.65625 149.625 -167.90625 C 162.6875 -159.164062 169.21875 -146.539062 169.21875 -130.03125 Z M 169.21875 -34.484375 "/></g></g></g><g fill="#ffffff" fill-opacity="1"><g transform="translate(1309.1213, 260.282469)"><g><path d="M 22.671875 -176.5 L 67.203125 -176.5 L 67.203125 -145.890625 L 67.84375 -145.890625 C 73.238281 -157.441406 79.769531 -166.1875 87.4375 -172.125 C 95.101562 -178.0625 104.710938 -181.03125 116.265625 -181.03125 C 119.285156 -181.03125 122.253906 -180.816406 125.171875 -180.390625 L 125.171875 -133.265625 C 123.015625 -133.691406 118.585938 -133.90625 111.890625 -133.90625 C 97.421875 -133.90625 86.675781 -130.425781 79.65625 -123.46875 C 72.644531 -116.507812 69.140625 -105.957031 69.140625 -91.8125 L 69.140625 0 L 22.671875 0 Z M 22.671875 -176.5 "/></g></g></g></g></g></svg>