<svg xmlns="http://www.w3.org/2000/svg" xmlns:xlink="http://www.w3.org/1999/xlink" width="2000" zoomAndPan="magnify" viewBox="0 0 1500 1499.999933" height="2000" preserveAspectRatio="xMidYMid meet" version="1.0"><defs><clipPath id="35d7d566c3"><path d="M 137.589844 52 L 1362.339844 52 L 1362.339844 1448.441406 L 137.589844 1448.441406 Z M 137.589844 52 " clip-rule="nonzero"/></clipPath><clipPath id="c434f3a9cb"><path d="M 0.660156 0.320312 L 1225.339844 0.320312 L 1225.339844 1396 L 0.660156 1396 Z M 0.660156 0.320312 " clip-rule="nonzero"/></clipPath><clipPath id="51653a0d1d"><rect x="0" width="1226" y="0" height="1397"/></clipPath></defs><g clip-path="url(#35d7d566c3)"><g transform="matrix(1, 0, 0, 1, 137, 52)"><g clip-path="url(#51653a0d1d)"><path fill="#ffffff" d="M 215.984375 468.585938 C 218.472656 464.027344 221.726562 459.519531 228.519531 456.089844 L 325.5 400.074219 C 326.839844 399.308594 328.277344 398.722656 329.808594 398.335938 C 330.285156 398.222656 330.765625 398.222656 331.289062 398.140625 C 332.292969 397.96875 333.300781 397.785156 334.304688 397.796875 L 334.496094 397.785156 L 334.496094 397.835938 C 337.367188 397.882812 340.1875 398.65625 342.675781 400.082031 L 560.894531 526.089844 L 561.085938 525.707031 L 578.695312 535.898438 C 599.9375 548.148438 626.058594 548.148438 647.304688 535.898438 L 742.707031 480.832031 C 747.988281 477.765625 751.253906 472.097656 751.253906 465.96875 C 751.253906 459.839844 747.988281 454.175781 742.707031 451.109375 L 647.304688 396.074219 C 626.058594 383.8125 599.9375 383.8125 578.695312 396.074219 L 555.730469 409.332031 C 550.417969 412.382812 543.910156 412.382812 538.601562 409.332031 L 449.753906 358.046875 C 444.441406 354.984375 441.1875 349.324219 441.1875 343.195312 C 441.1875 337.070312 444.441406 331.40625 449.753906 328.34375 L 578.695312 253.882812 C 599.9375 241.640625 626.058594 241.640625 647.304688 253.882812 L 963.183594 436.269531 C 986.046875 449.472656 986.046875 482.457031 963.183594 495.664062 L 647.304688 678.046875 C 626.058594 690.292969 599.9375 690.292969 578.695312 678.046875 L 334.496094 537.046875 L 334.496094 858.226562 L 412.960938 903.679688 L 578.695312 999.65625 C 583.957031 1002.671875 589.554688 1004.96875 595.390625 1006.546875 C 612.902344 1011.1875 631.5625 1008.699219 647.304688 999.65625 L 874.375 868.5625 C 884.988281 862.4375 891.527344 851.097656 891.519531 838.851562 L 891.519531 651.636719 C 891.519531 645.511719 894.804688 639.816406 900.09375 636.804688 L 988.914062 585.464844 C 994.222656 582.40625 1000.757812 582.40625 1006.070312 585.464844 C 1011.375 588.527344 1014.640625 594.222656 1014.640625 600.347656 L 1014.640625 909.949219 C 1014.640625 922.195312 1008.097656 933.488281 997.488281 939.660156 L 647.304688 1141.851562 C 637.015625 1147.785156 625.34375 1150.894531 613.476562 1150.988281 L 613.238281 1150.988281 C 611.5625 1150.988281 609.890625 1150.796875 608.214844 1150.703125 C 606.921875 1150.605469 605.628906 1150.605469 604.339844 1150.460938 C 602.570312 1150.222656 600.796875 1149.792969 599.074219 1149.457031 C 597.878906 1149.171875 596.683594 1149.027344 595.535156 1148.738281 C 593.621094 1148.261719 591.804688 1147.542969 589.984375 1146.875 C 588.933594 1146.492188 587.929688 1146.253906 586.972656 1145.871094 C 584.148438 1144.722656 581.375 1143.382812 578.742188 1141.851562 L 276.605469 967.410156 L 228.710938 940.234375 C 217.992188 934.15625 211.34375 922.769531 211.34375 910.425781 L 211.34375 485.757812 C 211.34375 479.632812 213.019531 473.730469 215.984375 468.585938 " fill-opacity="1" fill-rule="nonzero"/><g clip-path="url(#c434f3a9cb)"><path fill="#ffffff" d="M 579.554688 151.320312 C 589.746094 145.449219 601.230469 142.3125 613 142.203125 C 624.722656 142.3125 636.25 145.453125 646.441406 151.320312 L 1068.417969 394.953125 C 1089.578125 407.179688 1102.617188 429.757812 1102.621094 454.195312 L 1102.621094 941.492188 C 1102.625 965.941406 1089.585938 988.523438 1068.417969 1000.722656 L 646.441406 1244.347656 C 636.109375 1250.328125 624.433594 1253.484375 612.519531 1253.535156 C 600.605469 1253.484375 588.886719 1250.328125 578.550781 1244.394531 L 158.429688 1001.824219 C 137.28125 989.625 124.21875 967.042969 124.21875 942.59375 L 124.21875 801.785156 C 124.265625 795.660156 120.964844 790.015625 115.703125 786.953125 L 26.234375 735.328125 C 20.96875 732.269531 14.414062 732.269531 9.152344 735.328125 C 3.84375 738.390625 0.589844 744.039062 0.589844 750.160156 L 0.589844 1012.398438 C 0.636719 1023.59375 3.410156 1034.597656 8.675781 1044.453125 C 10.015625 1050.914062 17.046875 1058.519531 27 1066.320312 C 27.191406 1066.511719 27.476562 1066.703125 27.714844 1066.890625 C 52.976562 1086.558594 94.792969 1106.84375 102.210938 1111.148438 L 578.550781 1386.160156 C 589.21875 1392.285156 601.371094 1395.441406 613.667969 1395.296875 L 614.195312 1395.296875 L 614.195312 1395.25 C 625.535156 1394.960938 636.632812 1391.804688 646.441406 1386.160156 L 1191.199219 1071.628906 C 1212.367188 1059.429688 1225.402344 1036.847656 1225.410156 1012.398438 L 1225.410156 383.335938 C 1225.410156 372.351562 1224.019531 361.167969 1219.195312 351.695312 C 1218.535156 349.242188 1211.933594 337.15625 1198.332031 327.214844 C 1193.203125 323.761719 1184.136719 319.121094 1175.644531 314.207031 L 647.96875 9.5625 C 637.347656 3.441406 625.242188 0.292969 612.992188 0.441406 C 600.699219 0.289062 588.640625 3.4375 578.019531 9.5625 L 91.105469 290.652344 C 90.003906 291.324219 89.144531 292.132812 88.1875 292.910156 L 82.015625 296.441406 C 65.460938 305.21875 39.527344 318.59375 25.464844 329.277344 L 24.316406 330.140625 C 24.125 330.285156 23.933594 330.425781 23.742188 330.554688 C 23.261719 330.964844 22.925781 331.375 22.449219 331.808594 C 17.28125 336.128906 12.878906 341.203125 9.484375 346.878906 C 9.386719 346.949219 9.339844 347.050781 9.242188 347.140625 L 9.292969 347.15625 C 3.597656 356.65625 0.582031 367.519531 0.582031 378.585938 L 0.582031 608.921875 C 0.582031 615.046875 3.835938 620.691406 9.148438 623.753906 L 98.617188 675.425781 C 103.878906 678.441406 110.433594 678.441406 115.699219 675.425781 C 121.007812 672.363281 124.261719 666.71875 124.261719 660.59375 L 124.261719 452.871094 C 124.261719 428.40625 137.324219 405.796875 158.519531 393.589844 L 579.550781 151.316406 L 579.550781 151.332031 Z M 579.554688 151.320312 " fill-opacity="1" fill-rule="nonzero"/></g></g></g></g></svg>