<svg xmlns="http://www.w3.org/2000/svg" xmlns:xlink="http://www.w3.org/1999/xlink" width="2000" zoomAndPan="magnify" viewBox="0 0 1500 1499.999933" height="2000" preserveAspectRatio="xMidYMid meet" version="1.0"><defs><clipPath id="abdd6a2676"><path d="M 238.269531 11.328125 L 1262 11.328125 L 1262 1500 L 238.269531 1500 Z M 238.269531 11.328125 " clip-rule="nonzero"/></clipPath></defs><g clip-path="url(#abdd6a2676)"><path fill="#e94045" d="M 629.394531 18.464844 C 666.84375 7.933594 706.636719 9.101562 741.746094 21.976562 C 774.515625 33.679688 802.605469 53.574219 826.011719 78.152344 C 847.078125 100.390625 862.289062 127.308594 876.335938 153.054688 C 892.71875 143.691406 907.933594 134.328125 925.488281 126.136719 C 967.621094 109.75 1013.265625 102.730469 1058.90625 110.921875 C 1086.996094 117.945312 1116.253906 130.816406 1136.148438 153.054688 C 1151.363281 169.4375 1163.066406 190.503906 1168.917969 212.742188 C 1199.347656 220.933594 1229.777344 239.660156 1246.160156 267.746094 C 1263.714844 298.175781 1263.714844 335.625 1257.863281 369.566406 C 1250.84375 412.867188 1230.945312 453.832031 1206.371094 490.109375 C 1188.816406 515.859375 1168.917969 540.4375 1146.683594 561.5 C 1097.527344 608.316406 1040.183594 645.765625 976.984375 669.171875 C 903.253906 698.429688 822.5 706.625 744.085938 693.75 C 747.597656 705.453125 753.449219 717.15625 756.960938 730.03125 C 780.367188 799.078125 782.707031 873.980469 776.855469 946.542969 C 772.175781 1019.101562 758.128906 1090.492188 747.597656 1160.714844 C 746.425781 1164.226562 746.425781 1167.734375 746.425781 1171.246094 C 760.472656 1136.136719 779.195312 1101.027344 797.921875 1067.085938 C 837.714844 998.035156 885.699219 931.328125 946.554688 878.664062 C 972.300781 856.425781 1000.390625 835.359375 1031.988281 821.316406 C 1058.90625 809.613281 1089.335938 800.25 1119.765625 804.929688 C 1139.660156 807.273438 1160.726562 820.144531 1166.578125 840.042969 C 1175.941406 864.617188 1172.429688 892.707031 1166.578125 917.285156 C 1158.386719 951.222656 1144.34375 982.824219 1127.957031 1012.082031 C 1108.0625 1048.363281 1082.3125 1079.960938 1055.394531 1110.390625 C 1008.582031 1160.714844 953.578125 1204.015625 891.550781 1233.273438 C 861.121094 1246.148438 828.351562 1257.851562 794.410156 1257.851562 C 773.34375 1257.851562 748.769531 1250.828125 738.234375 1230.933594 C 705.464844 1316.367188 678.546875 1404.144531 669.183594 1495.429688 C 666.84375 1502.453125 658.652344 1500.113281 655.140625 1496.601562 C 655.140625 1474.363281 659.824219 1453.296875 663.332031 1432.230469 C 676.207031 1356.160156 703.125 1282.429688 730.042969 1209.867188 C 726.53125 1187.632812 732.382812 1164.226562 735.894531 1140.816406 C 752.277344 1041.339844 771.003906 940.691406 763.984375 838.871094 C 760.472656 790.886719 748.769531 744.074219 731.214844 699.601562 C 717.167969 705.453125 704.296875 711.304688 690.25 715.984375 C 614.179688 738.222656 531.085938 731.199219 457.355469 703.113281 C 418.734375 686.726562 381.28125 666.832031 350.855469 638.742188 C 313.402344 607.144531 284.144531 567.351562 263.078125 522.878906 C 240.84375 472.554688 232.648438 415.210938 243.183594 361.375 C 250.203125 327.433594 265.417969 295.835938 288.824219 271.257812 C 319.253906 242 360.214844 224.445312 403.519531 225.613281 C 426.925781 225.613281 450.332031 232.636719 471.398438 243.171875 C 478.421875 189.335938 497.144531 136.667969 528.746094 92.195312 C 554.492188 58.257812 589.601562 31.339844 629.394531 18.464844 Z M 637.585938 31.339844 C 593.113281 43.042969 556.832031 74.640625 532.257812 113.261719 C 506.507812 155.394531 490.125 203.378906 484.273438 251.363281 C 517.042969 273.597656 542.789062 305.199219 562.683594 337.96875 C 588.433594 378.929688 609.5 422.230469 630.5625 465.535156 C 662.164062 529.902344 694.933594 594.269531 727.703125 657.46875 C 749.9375 652.789062 771.003906 645.765625 793.242188 639.914062 C 797.921875 638.742188 803.773438 635.234375 807.285156 631.722656 C 835.371094 602.464844 861.121094 570.863281 884.527344 539.265625 C 904.421875 510.007812 924.320312 480.75 938.363281 449.148438 C 947.726562 429.253906 955.917969 408.1875 955.917969 385.949219 C 955.917969 375.417969 950.066406 366.054688 940.703125 362.542969 C 926.660156 355.523438 910.273438 357.863281 895.058594 361.375 C 888.039062 362.542969 879.847656 362.542969 875.164062 368.394531 C 863.460938 376.589844 849.417969 382.441406 836.542969 388.292969 C 816.648438 396.484375 795.582031 402.335938 774.515625 404.675781 C 728.871094 411.699219 678.546875 408.1875 637.585938 384.78125 C 621.203125 375.417969 604.816406 361.375 596.625 343.820312 C 587.261719 323.921875 589.601562 299.347656 602.476562 281.792969 C 618.859375 261.894531 642.265625 250.191406 665.675781 242 C 710.148438 225.613281 756.960938 219.761719 803.773438 225.613281 C 821.328125 201.039062 842.394531 179.972656 865.800781 162.417969 C 854.097656 141.351562 841.226562 120.285156 826.011719 101.558594 C 803.773438 72.300781 774.515625 48.894531 740.574219 37.191406 C 707.804688 25.488281 671.527344 21.976562 637.585938 31.339844 Z M 883.355469 165.929688 C 890.378906 178.800781 896.230469 192.84375 902.082031 205.71875 C 906.761719 216.253906 913.785156 227.957031 923.148438 234.976562 C 936.023438 243.171875 951.234375 244.339844 965.28125 240.828125 C 985.175781 236.148438 1003.902344 226.785156 1022.625 220.933594 C 1064.757812 205.71875 1109.230469 201.039062 1152.535156 208.058594 C 1143.171875 183.484375 1127.957031 161.246094 1105.722656 146.03125 C 1074.121094 124.964844 1034.332031 119.113281 996.878906 122.625 C 955.917969 127.308594 916.125 143.691406 883.355469 165.929688 Z M 821.328125 227.957031 C 841.226562 232.636719 863.460938 237.320312 881.015625 250.191406 C 897.402344 261.894531 909.105469 281.792969 909.105469 301.6875 C 909.105469 318.070312 903.253906 334.457031 893.890625 347.328125 C 909.105469 343.820312 925.488281 342.648438 941.875 347.328125 C 954.746094 350.839844 966.449219 362.542969 968.792969 377.757812 C 972.300781 392.972656 968.792969 409.359375 964.109375 424.574219 C 953.578125 458.511719 934.851562 490.109375 916.125 519.371094 C 891.550781 555.648438 864.632812 589.589844 835.371094 622.359375 C 870.484375 609.484375 904.421875 591.929688 937.191406 573.203125 C 969.960938 553.308594 1000.390625 531.074219 1029.648438 505.324219 C 1079.972656 462.023438 1123.277344 408.1875 1146.683594 344.988281 C 1159.554688 306.367188 1164.238281 264.234375 1156.046875 224.445312 C 1140.832031 220.933594 1125.617188 218.59375 1109.230469 218.59375 C 1072.953125 219.761719 1037.839844 227.957031 1005.070312 243.171875 C 988.6875 250.191406 972.300781 256.042969 954.746094 257.214844 C 936.023438 258.382812 916.125 251.363281 904.421875 237.320312 C 889.207031 218.59375 883.355469 195.1875 870.484375 175.289062 C 852.929688 190.503906 835.371094 208.058594 821.328125 227.957031 Z M 1172.429688 229.125 C 1175.941406 257.214844 1175.941406 286.472656 1170.089844 314.5625 C 1160.726562 357.863281 1140.832031 398.824219 1115.082031 433.933594 C 1091.675781 465.535156 1064.757812 494.792969 1035.5 519.371094 C 1003.902344 546.289062 971.132812 570.863281 934.851562 590.761719 C 903.253906 608.316406 871.652344 624.699219 838.882812 637.574219 C 828.351562 642.253906 816.648438 643.425781 807.285156 651.617188 C 793.242188 662.152344 779.195312 673.855469 763.984375 682.046875 C 796.75 685.558594 829.519531 686.726562 862.289062 683.214844 C 943.042969 673.855469 1020.285156 641.085938 1084.65625 594.269531 C 1143.171875 550.96875 1192.324219 495.960938 1222.753906 430.425781 C 1240.308594 391.804688 1253.183594 347.328125 1243.820312 305.199219 C 1241.480469 287.644531 1233.289062 272.429688 1221.585938 259.554688 C 1208.710938 244.339844 1189.984375 234.976562 1172.429688 229.125 Z M 385.964844 240.828125 C 359.046875 243.171875 330.957031 254.875 309.890625 272.429688 C 278.292969 299.347656 259.566406 340.308594 254.886719 381.269531 C 247.863281 430.425781 259.566406 480.75 280.632812 525.222656 C 300.53125 562.671875 325.105469 597.78125 357.875 624.699219 C 384.792969 649.277344 416.394531 669.171875 450.332031 683.214844 C 527.574219 717.15625 616.519531 725.347656 697.273438 698.429688 C 705.464844 694.921875 713.65625 692.578125 720.679688 686.726562 L 720.679688 690.238281 C 721.851562 689.066406 721.851562 687.898438 723.019531 686.726562 C 720.679688 686.726562 718.339844 686.726562 717.167969 687.898438 C 705.464844 686.726562 694.933594 683.214844 684.398438 679.707031 C 650.460938 666.832031 620.03125 645.765625 594.285156 621.1875 C 565.023438 593.101562 541.617188 560.332031 521.722656 524.050781 C 478.421875 444.46875 459.695312 349.671875 469.058594 259.554688 C 444.480469 244.339844 415.222656 237.320312 385.964844 240.828125 Z M 719.507812 242 C 689.082031 247.851562 657.480469 256.042969 631.734375 274.769531 C 616.519531 285.300781 603.644531 301.6875 604.816406 320.414062 C 607.15625 343.820312 624.710938 360.203125 643.4375 371.90625 C 673.867188 388.292969 708.976562 394.144531 744.085938 392.972656 C 779.195312 392.972656 814.308594 383.609375 847.078125 368.394531 C 828.351562 366.054688 808.457031 363.714844 793.242188 352.011719 C 776.855469 340.308594 768.664062 316.902344 772.175781 295.835938 C 774.515625 274.769531 783.878906 256.042969 795.582031 238.488281 C 769.835938 237.320312 744.085938 237.320312 719.507812 242 Z M 810.796875 242 C 799.09375 257.214844 790.898438 274.769531 787.390625 293.496094 C 782.707031 311.050781 788.558594 330.945312 802.605469 341.476562 C 817.816406 352.011719 836.542969 354.351562 854.097656 353.183594 C 859.949219 353.183594 866.972656 353.183594 872.824219 349.671875 C 884.527344 337.96875 892.71875 322.753906 895.058594 306.367188 C 896.230469 292.324219 889.207031 278.28125 879.847656 268.917969 C 863.460938 253.703125 842.394531 246.679688 821.328125 242 C 817.816406 242 813.136719 239.660156 810.796875 242 Z M 483.101562 268.917969 C 474.910156 353.183594 493.636719 438.617188 532.257812 513.519531 C 549.8125 546.289062 572.046875 576.714844 596.625 603.632812 C 618.859375 625.871094 642.265625 644.59375 670.355469 657.46875 C 683.230469 663.320312 699.613281 663.320312 713.65625 660.980469 C 699.613281 632.890625 684.398438 605.972656 670.355469 579.058594 C 636.414062 513.519531 605.988281 445.636719 570.878906 380.097656 C 548.640625 339.136719 521.722656 298.175781 483.101562 268.917969 Z M 733.554688 670.34375 C 734.722656 672.683594 737.066406 675.023438 739.40625 677.363281 C 749.9375 673.855469 759.300781 666.832031 768.664062 662.152344 C 756.960938 664.492188 745.257812 668.003906 733.554688 670.34375 Z M 1082.3125 820.144531 C 1030.820312 830.679688 986.347656 862.277344 947.726562 896.21875 C 919.636719 923.136719 892.71875 952.394531 869.3125 985.164062 C 817.816406 1053.042969 778.027344 1129.113281 746.425781 1208.699219 C 744.085938 1221.570312 754.621094 1233.273438 766.324219 1237.957031 C 786.21875 1246.148438 808.457031 1243.808594 828.351562 1239.125 C 865.800781 1230.933594 899.742188 1214.550781 931.339844 1194.652344 C 994.539062 1156.03125 1047.203125 1103.367188 1090.507812 1043.679688 C 1110.402344 1014.421875 1127.957031 983.992188 1140.832031 951.222656 C 1151.363281 923.136719 1159.554688 893.878906 1157.214844 863.449219 C 1156.046875 849.40625 1151.363281 835.359375 1139.660156 827.167969 C 1122.105469 816.636719 1101.039062 816.636719 1082.3125 820.144531 Z M 1082.3125 820.144531 " fill-opacity="1" fill-rule="evenodd"/></g></svg>